<?xml version="1.0" standalone="no"?>
<!DOCTYPE svg PUBLIC "-//W3C//DTD SVG 20010904//EN"
 "http://www.w3.org/TR/2001/REC-SVG-20010904/DTD/svg10.dtd">
<svg version="1.0" xmlns="http://www.w3.org/2000/svg"
 width="200.000000pt" height="200.000000pt" viewBox="0 0 200.000000 200.000000"
 preserveAspectRatio="xMidYMid meet">
<metadata>
Created by potrace 1.14, written by Peter Selinger 2001-2017
</metadata>
<g transform="translate(0.000000,200.000000) scale(0.100000,-0.100000)"
fill="#000000" stroke="none">
<path d="M740 1538 c0 -5 15 -37 32 -71 18 -34 34 -65 36 -69 2 -4 -15 -16
-37 -28 -23 -11 -41 -24 -41 -28 0 -7 23 -33 147 -164 29 -31 53 -51 53 -45 0
7 -9 41 -20 75 -26 82 -25 86 9 98 l29 11 -55 112 c-29 61 -57 111 -61 112
-42 5 -92 4 -92 -3z"/>
<path d="M497 1068 c-111 -24 -201 -111 -232 -224 -16 -57 -19 -60 -49 -59
-28 0 -31 -3 -31 -30 0 -25 4 -30 25 -31 47 -3 50 -4 50 -21 0 -26 44 -114 72
-143 83 -92 216 -125 336 -86 91 31 185 136 198 223 2 16 6 39 8 53 3 14 5 28
5 32 2 13 88 48 119 48 69 0 126 -40 130 -92 14 -195 219 -327 410 -264 30 10
72 36 101 62 48 43 101 130 101 166 0 10 7 19 15 19 8 1 25 2 38 3 18 1 22 7
22 31 0 26 -3 30 -30 30 -27 1 -31 6 -55 72 -32 92 -78 145 -159 185 -141 71
-307 25 -394 -108 -14 -21 -29 -51 -32 -66 l-7 -26 -41 19 c-55 25 -141 25
-190 0 l-37 -19 -25 52 c-62 131 -209 205 -348 174z m160 -73 c99 -41 156
-130 152 -237 -2 -71 -22 -117 -69 -165 -123 -125 -330 -88 -401 73 -91 204
113 414 318 329z m892 -8 c46 -23 100 -82 119 -132 30 -76 13 -180 -40 -247
-50 -64 -169 -105 -248 -85 -148 37 -232 203 -172 340 59 134 209 188 341 124z"/>
</g>
</svg>
